<?xml version="1.0" standalone="no"?><!DOCTYPE svg PUBLIC "-//W3C//DTD SVG 1.1//EN" "http://www.w3.org/Graphics/SVG/1.1/DTD/svg11.dtd"><svg t="1527125361846" class="icon" style="" viewBox="0 0 1024 1024" version="1.1" xmlns="http://www.w3.org/2000/svg" p-id="3641" xmlns:xlink="http://www.w3.org/1999/xlink" width="48" height="48"><defs><style type="text/css"></style></defs><path d="M766 328h196V49H68v279h186V205h512v123z" fill="#CCECFF" p-id="3642"></path><path d="M896 180c0-19.9-16.1-36-36-36H164c-19.9 0-36 16.1-36 36s16.1 36 36 36h28v736c0 39.8 32.2 72 72 72h496c39.8 0 72-32.2 72-72V216h28c19.9 0 36-16.1 36-36zM760 952H264V216h496v736z" fill="#108EE9" p-id="3643"></path><path d="M467.7 533H403c-17.7 0-32 14.3-32 32s14.3 32 32 32h77v43h-84c-17.7 0-32 14.3-32 32s14.3 32 32 32h84v64c0 17.7 14.3 32 32 32s32-14.3 32-32v-64h84c17.7 0 32-14.3 32-32s-14.3-32-32-32h-84v-43h91c17.7 0 32-14.3 32-32s-14.3-32-32-32h-77.9l110.4-110.4c12.5-12.5 12.5-32.8 0-45.3s-32.8-12.5-45.3 0L512.4 487.2 402.6 377.4c-12.5-12.5-32.8-12.5-45.3 0s-12.5 32.8 0 45.3L467.7 533zM1024 36c0-19.9-16.1-36-36-36H36C16.1 0 0 16.1 0 36v216c0 1.4 0.1 2.7 0.2 4H0v36c0 19.9 16.1 36 36 36h88c19.9 0 36-16.1 36-36s-16.1-36-36-36H72V72h880v184h-52c-19.9 0-36 16.1-36 36s16.1 36 36 36h88c19.9 0 36-16.1 36-36v-36h-0.2c0.1-1.3 0.2-2.6 0.2-4V36z" fill="#108EE9" p-id="3644"></path></svg>