<?xml version="1.0" standalone="no"?><!DOCTYPE svg PUBLIC "-//W3C//DTD SVG 1.1//EN" "http://www.w3.org/Graphics/SVG/1.1/DTD/svg11.dtd"><svg t="1527125473129" class="icon" style="" viewBox="0 0 1024 1024" version="1.1" xmlns="http://www.w3.org/2000/svg" p-id="15695" xmlns:xlink="http://www.w3.org/1999/xlink" width="48" height="48"><defs><style type="text/css"></style></defs><path d="M968.064 874.048H77.184v-742.4a38.592 38.592 0 0 0-77.184 0V912.64c0 21.312 17.28 38.592 38.592 38.592h929.536a38.592 38.592 0 1 0-0.064-77.184z m0 0" fill="#3FA9F5" p-id="15696"></path><path d="M210.176 724.544a19.2 19.2 0 0 0 13.568-5.568l255.68-252.352 96.64 96.64a19.84 19.84 0 0 0 27.264 0l169.28-169.536 8.96 8.96 51.584 51.264 37.056-181.632-185.472 33.856 52.992 52.8 7.488 7.488-155.52 155.776-96.576-96.512a19.328 19.328 0 0 0-27.2-0.064L196.608 691.52a19.328 19.328 0 0 0 13.568 33.024z m0 0" fill="#3FA9F5" p-id="15697"></path></svg>