<?xml version="1.0" standalone="no"?><!DOCTYPE svg PUBLIC "-//W3C//DTD SVG 1.1//EN" "http://www.w3.org/Graphics/SVG/1.1/DTD/svg11.dtd"><svg t="1527069154029" class="icon" style="" viewBox="0 0 1024 1024" version="1.1" xmlns="http://www.w3.org/2000/svg" p-id="10798" xmlns:xlink="http://www.w3.org/1999/xlink" width="48" height="48"><defs><style type="text/css"></style></defs><path d="M148.331 273.691c-47.428 0-86.026-38.597-86.026-86.026s38.596-86.014 86.026-86.014 86.026 38.585 86.026 86.014-38.597 86.026-86.026 86.026z m0-122.073c-19.883 0-36.059 16.176-36.059 36.048 0 19.883 16.176 36.059 36.059 36.059s36.059-16.176 36.059-36.059c0-19.872-16.176-36.048-36.059-36.048zM936.712 212.649H341.608c-13.809 0-24.982-11.187-24.982-24.983s11.174-24.983 24.982-24.983h595.104c13.809 0 24.983 11.187 24.983 24.983s-11.174 24.983-24.983 24.983zM148.331 598.019c-47.428 0-86.026-38.596-86.026-86.026s38.596-86.014 86.026-86.014 86.026 38.585 86.026 86.014-38.597 86.026-86.026 86.026z m0-122.072c-19.883 0-36.059 16.176-36.059 36.048 0 19.883 16.176 36.059 36.059 36.059s36.059-16.176 36.059-36.059c0-19.872-16.176-36.048-36.059-36.048zM936.712 536.977H341.608c-13.809 0-24.982-11.186-24.982-24.983s11.174-24.983 24.982-24.983h595.104c13.809 0 24.983 11.186 24.983 24.983s-11.174 24.983-24.983 24.983zM148.331 922.348c-47.428 0-86.026-38.596-86.026-86.026s38.596-86.013 86.026-86.013 86.026 38.585 86.026 86.014-38.597 86.026-86.026 86.026z m0-122.073c-19.883 0-36.059 16.176-36.059 36.048 0 19.883 16.176 36.059 36.059 36.059s36.059-16.176 36.059-36.059c0-19.872-16.176-36.048-36.059-36.048zM936.712 861.306H341.608c-13.809 0-24.982-11.187-24.982-24.983 0-13.797 11.174-24.983 24.982-24.983h595.104c13.809 0 24.983 11.187 24.983 24.983 0 13.797-11.174 24.983-24.983 24.983z" p-id="10799" fill="#ffffff"></path></svg>