<?xml version="1.0" standalone="no"?><!DOCTYPE svg PUBLIC "-//W3C//DTD SVG 1.1//EN" "http://www.w3.org/Graphics/SVG/1.1/DTD/svg11.dtd"><svg t="1527125266989" class="icon" style="" viewBox="0 0 1024 1024" version="1.1" xmlns="http://www.w3.org/2000/svg" p-id="2009" xmlns:xlink="http://www.w3.org/1999/xlink" width="48" height="48"><defs><style type="text/css"></style></defs><path d="M246.85712 978.285731a265.142762 45.714269 0 1 0 530.285524 0 265.142762 45.714269 0 1 0-530.285524 0Z" fill="#ffffff" p-id="2010"></path><path d="M253.439974 632.137283V344.868814A259.291336 259.291336 0 0 1 511.999882 86.126049a259.291336 259.291336 0 0 1 258.559908 258.559908v287.451326z" fill="#ffffff" p-id="2011"></path><path d="M842.422621 718.445823H181.577143L253.439974 603.428722h517.119816l71.862831 115.017101zM511.999882 0.000366a57.417122 57.417122 0 0 0-57.417122 57.417122h115.017101A57.417122 57.417122 0 0 0 511.999882 0.000366zM511.999882 804.571507a57.417122 57.417122 0 0 0 57.417122-57.417122h-115.017101A57.417122 57.417122 0 0 0 511.999882 804.571507z" fill="#ffffff" p-id="2012"></path></svg>