<?xml version="1.0" standalone="no"?><!DOCTYPE svg PUBLIC "-//W3C//DTD SVG 1.1//EN" "http://www.w3.org/Graphics/SVG/1.1/DTD/svg11.dtd"><svg t="1527069445592" class="icon" style="" viewBox="0 0 1024 1024" version="1.1" xmlns="http://www.w3.org/2000/svg" p-id="32616" xmlns:xlink="http://www.w3.org/1999/xlink" width="48" height="48"><defs><style type="text/css"></style></defs><path d="M1024 517.12C1024 230.4 793.6 0 506.88 0 230.4 0 0 230.4 0 517.12 0 793.6 230.4 1024 506.88 1024c286.72 0 517.12-230.4 517.12-506.88z" fill="#EB2B2B" p-id="32617"></path><path d="M481.28 204.8h61.44c10.24 0 20.48 10.24 20.48 20.48l-15.36 419.84c0 5.12-5.12 10.24-10.24 10.24h-51.2c-5.12 0-10.24-5.12-10.24-10.24L460.8 225.28c0-10.24 10.24-20.48 20.48-20.48z m30.72 614.4c-30.72 0-51.2-20.48-51.2-51.2 0-25.6 20.48-51.2 51.2-51.2s51.2 20.48 51.2 51.2-20.48 51.2-51.2 51.2z" fill="#FFFFFF" p-id="32618"></path></svg>