<?xml version="1.0" standalone="no"?><!DOCTYPE svg PUBLIC "-//W3C//DTD SVG 1.1//EN" "http://www.w3.org/Graphics/SVG/1.1/DTD/svg11.dtd"><svg t="1527133781823" class="icon" style="" viewBox="0 0 1109 1024" version="1.1" xmlns="http://www.w3.org/2000/svg" p-id="25512" xmlns:xlink="http://www.w3.org/1999/xlink" width="51.984375" height="48"><defs><style type="text/css"></style></defs><path d="M0 465.066667h209.066667v93.866666H0zM418.133333 401.066667V0H0V401.066667h418.133333zM98.133333 302.933333V98.133333h226.133334v204.8H98.133333zM1109.333333 401.066667V0H686.933333V401.066667H1109.333333z m-324.266666-98.133334V98.133333h226.133333v204.8h-226.133333zM896 465.066667h209.066667v93.866666H896zM0 622.933333V1024H422.4V622.933333H0z m324.266667 98.133334v204.8H98.133333v-204.8h226.133334zM1006.933333 622.933333v307.2h-315.733333V1024H1109.333333v-401.066667z" fill="#4A90E2" p-id="25513"></path><path d="M785.066667 716.8h136.533333v-93.866667h-230.4v221.866667h93.866667zM601.6 695.466667V298.666667h-98.133333v166.4H354.133333V554.666667h149.333334v140.8zM507.733333 0h98.133334v200.533333h-98.133334zM503.466667 823.466667h98.133333V1024h-98.133333z" fill="#4A90E2" p-id="25514"></path></svg>