<?xml version="1.0" standalone="no"?><!DOCTYPE svg PUBLIC "-//W3C//DTD SVG 1.1//EN" "http://www.w3.org/Graphics/SVG/1.1/DTD/svg11.dtd"><svg t="1527125541723" class="icon" style="" viewBox="0 0 1024 1024" version="1.1" xmlns="http://www.w3.org/2000/svg" p-id="18869" xmlns:xlink="http://www.w3.org/1999/xlink" width="48" height="48"><defs><style type="text/css"></style></defs><path d="M661.504 602.112c-122.88 0-223.232-100.352-223.232-223.232s100.352-223.232 223.232-223.232 223.232 100.352 223.232 223.232-100.352 223.232-223.232 223.232z m0-387.072c-90.112 0-161.792 73.728-161.792 161.792s73.728 161.792 161.792 161.792c90.112 0 161.792-73.728 161.792-161.792s-71.68-161.792-161.792-161.792z" fill="#1296db" p-id="18870"></path><path d="M962.56 903.168c-16.384 0-30.72-14.336-30.72-30.72 0-149.504-120.832-270.336-270.336-270.336-149.504 0-270.336 120.832-270.336 270.336 0 16.384-14.336 30.72-30.72 30.72s-30.72-14.336-30.72-30.72c0-182.272 149.504-331.776 331.776-331.776 182.272 0 331.776 149.504 331.776 331.776 0 16.384-14.336 30.72-30.72 30.72zM274.432 882.688h-129.024c-53.248 0-94.208-43.008-94.208-94.208v-536.576c0-53.248 43.008-94.208 94.208-94.208h258.048c16.384 0 30.72 14.336 30.72 30.72s-14.336 30.72-30.72 30.72h-258.048c-18.432 0-32.768 14.336-32.768 32.768v536.576c0 18.432 14.336 32.768 32.768 32.768h129.024c16.384 0 30.72 14.336 30.72 30.72s-12.288 30.72-30.72 30.72z" fill="#1296db" p-id="18871"></path><path d="M350.208 356.352h-149.504c-16.384 0-30.72-14.336-30.72-30.72s14.336-30.72 30.72-30.72h149.504c16.384 0 30.72 14.336 30.72 30.72s-14.336 30.72-30.72 30.72zM350.208 505.856h-149.504c-16.384 0-30.72-14.336-30.72-30.72s14.336-30.72 30.72-30.72h149.504c16.384 0 30.72 14.336 30.72 30.72s-14.336 30.72-30.72 30.72zM350.208 655.36h-149.504c-16.384 0-30.72-14.336-30.72-30.72s14.336-30.72 30.72-30.72h149.504c16.384 0 30.72 14.336 30.72 30.72s-14.336 30.72-30.72 30.72z" fill="#1296db" p-id="18872"></path></svg>